HIERARCHY
ROOT Hips
{
	OFFSET 0.000000 0.000000 0.000000
	CHANNELS 6 Xposition Yposition Zposition Zrotation Yrotation Xrotation 
	JOINT LeftUpLeg_virtual
	{
		OFFSET 0.000000 0.000000 0.000000
		CHANNELS 3 Zrotation Yrotation Xrotation
		JOINT LeftUpLeg
		{
			OFFSET 8.479694 -4.795517 -0.379053
			CHANNELS 3 Zrotation Yrotation Xrotation
			JOINT LeftLeg
			{
				OFFSET 0.485052 -32.551468 0.112863
				CHANNELS 3 Zrotation Yrotation Xrotation
				JOINT LeftFoot
				{
					OFFSET 0.438033 -32.635670 -3.012641
					CHANNELS 3 Zrotation Yrotation Xrotation
					JOINT LeftToeBase
					{
						OFFSET 0.970169 -13.225353 11.864223
						CHANNELS 3 Zrotation Yrotation Xrotation
						End Site
						{
							OFFSET 0.000000 0.000000 0.000000
						}
					}
				}
			}
		}
	}
	JOINT RightUpLeg_virtual
	{
		OFFSET 0.000000 0.000000 0.000000
		CHANNELS 3 Zrotation Yrotation Xrotation
		JOINT RightUpLeg
		{
			OFFSET -8.479694 -4.795517 -0.379053
			CHANNELS 3 Zrotation Yrotation Xrotation
			JOINT RightLeg
			{
				OFFSET -0.484100 -32.551483 0.112903
				CHANNELS 3 Zrotation Yrotation Xrotation
				JOINT RightFoot
				{
					OFFSET -0.438985 -32.635651 -3.012681
					CHANNELS 3 Zrotation Yrotation Xrotation
					JOINT RightToeBase
					{
						OFFSET -0.970169 -13.225354 11.864223
						CHANNELS 3 Zrotation Yrotation Xrotation
						End Site
						{
							OFFSET 0.000000 0.000000 0.000000
						}
					}
				}
			}
		}
	}
	JOINT Spine_virtual
	{
		OFFSET 0.000000 0.000000 0.000000
		CHANNELS 3 Zrotation Yrotation Xrotation
		JOINT Spine
		{
			OFFSET 0.000000 7.722015 1.166203
			CHANNELS 3 Zrotation Yrotation Xrotation
			JOINT Spine1
			{
				OFFSET 0.000000 12.024086 0.248766
				CHANNELS 3 Zrotation Yrotation Xrotation
				JOINT Spine2
				{
					OFFSET -0.000000 11.503036 -0.491240
					CHANNELS 3 Zrotation Yrotation Xrotation
					JOINT Neck_virtual
					{
						OFFSET 0.000000 0.000000 0.000000
						CHANNELS 3 Zrotation Yrotation Xrotation
						JOINT Neck
						{
							OFFSET 0.000000 18.430687 -3.123054
							CHANNELS 3 Zrotation Yrotation Xrotation
							JOINT Head
							{
								OFFSET -0.000000 9.051071 1.034021
								CHANNELS 3 Zrotation Yrotation Xrotation
								End Site
								{
									OFFSET 0.000000 0.000000 0.000000
								}
							}
						}
					}
					JOINT LeftShoulder_virtual
					{
						OFFSET 0.000000 0.000000 0.000000
						CHANNELS 3 Zrotation Yrotation Xrotation
						JOINT LeftShoulder
						{
							OFFSET 6.197824 13.665230 -4.064723
							CHANNELS 3 Zrotation Yrotation Xrotation
							JOINT LeftArm
							{
								OFFSET 7.778132 -0.187073 -1.709282
								CHANNELS 3 Zrotation Yrotation Xrotation
								JOINT LeftForeArm
								{
									OFFSET 21.954697 0.000000 -2.041093
									CHANNELS 3 Zrotation Yrotation Xrotation
									JOINT LeftHand
									{
										OFFSET 22.992908 0.000000 -0.870901
										CHANNELS 3 Zrotation Yrotation Xrotation
										End Site
										{
											OFFSET 0.000000 0.000000 0.000000
										}
									}
								}
							}
						}
					}
					JOINT RightShoulder_virtual
					{
						OFFSET 0.000000 0.000000 0.000000
						CHANNELS 3 Zrotation Yrotation Xrotation
						JOINT RightShoulder
						{
							OFFSET -6.197824 13.665230 -4.064723
							CHANNELS 3 Zrotation Yrotation Xrotation
							JOINT RightArm
							{
								OFFSET -7.778132 -0.187073 -1.709282
								CHANNELS 3 Zrotation Yrotation Xrotation
								JOINT RightForeArm
								{
									OFFSET -21.954697 0.000000 -2.041093
									CHANNELS 3 Zrotation Yrotation Xrotation
									JOINT RightHand
									{
										OFFSET -22.992908 0.000000 -0.870901
										CHANNELS 3 Zrotation Yrotation Xrotation
										End Site
										{
											OFFSET 0.000000 0.000000 0.000000
										}
									}
								}
							}
						}
					}
				}
			}
		}
	}
}
MOTION
Frames: 9
Frame Time: 0.033333
-2.326492 81.216331 -29.966393 -179.997382 2.661524 -179.118924 -3.325021 -0.086168 9.813883 2.708252 6.451497 -25.709235 4.555811 4.773331 32.884670 -3.676527 -13.355360 -10.073068 0.000000 0.000000 0.000000 0.219358 -2.170538 9.900971 0.551199 -0.420185 -21.310725 -2.852109 3.664459 32.372604 9.207904 3.793911 -14.785242 0.000000 0.000000 0.000000 0.594843 1.917971 -4.410888 -1.061333 -3.155717 -3.770378 -1.143809 -1.233198 10.299540 -0.098917 0.102361 0.117531 -1.587633 0.130800 10.592154 -1.750530 -1.224592 -14.471895 0.000000 0.000000 0.000000 0.205313 0.818811 8.530254 -8.802278 -2.845987 6.609052 -62.897361 -6.713171 13.181286 5.902859 -42.225295 7.065775 0.000000 0.000000 0.000000 -4.189075 2.369232 7.617142 28.984540 2.932410 10.223180 55.772166 7.282506 17.423181 -5.652818 30.746762 -5.928067 0.000000 0.000000 0.000000 
-2.327227 81.207207 -29.938084 -179.844755 3.341245 -178.850921 -3.454759 0.321996 10.187645 2.544513 6.647472 -25.396057 4.364265 4.618555 33.123159 -4.062172 -13.748382 -9.633186 0.000000 0.000000 0.000000 0.085276 -2.443273 10.184851 0.438468 -0.744996 -21.127609 -3.176164 3.376340 32.582372 8.731649 3.200344 -14.884702 0.000000 0.000000 0.000000 0.708695 2.045078 -4.529247 -0.986013 -2.996587 -3.932166 -1.179094 -1.136601 10.257367 -0.082660 0.140825 0.089682 -1.615451 0.083327 10.625626 -1.800024 -1.059556 -14.532689 0.000000 0.000000 0.000000 0.170142 0.926822 8.559812 -8.828510 -2.674523 6.600502 -62.913077 -6.740699 12.930176 5.961368 -42.219260 6.971757 0.000000 0.000000 0.000000 -4.166092 2.558544 7.816229 29.054733 3.017144 10.234486 55.724037 7.257431 17.628030 -5.694520 30.597823 -5.964746 0.000000 0.000000 0.000000 
-2.330539 81.199150 -29.916639 -179.849386 3.343789 -178.857383 -3.437977 0.294686 10.239720 2.479344 6.648056 -25.464513 4.382639 4.561922 33.142332 -4.047678 -13.759651 -9.726268 0.000000 0.000000 0.000000 0.118958 -2.461743 10.255718 0.415179 -0.794006 -21.235661 -3.176396 3.369988 32.681649 8.823442 3.147730 -14.879722 0.000000 0.000000 0.000000 0.715799 2.083292 -4.533932 -0.963618 -2.938965 -3.997884 -1.156724 -1.101685 10.265482 -0.059448 0.217360 0.112796 -1.608313 0.146032 10.604453 -1.795337 -1.023372 -14.517120 0.000000 0.000000 0.000000 0.126880 0.758141 8.530695 -8.793164 -2.674216 6.617268 -62.992608 -6.870378 12.813768 5.963251 -42.037120 7.079617 0.000000 0.000000 0.000000 -4.234091 2.478033 7.795173 29.125405 2.958643 10.202364 55.723187 7.134038 17.826324 -5.647953 30.212208 -5.947365 0.000000 0.000000 0.000000 
-2.341467 81.195747 -29.912901 -179.865560 3.431692 -178.856112 -3.413669 0.297349 10.306508 2.375531 6.745390 -25.520350 4.422659 4.603745 33.197448 -4.002559 -13.734133 -9.838442 0.000000 0.000000 0.000000 0.141913 -2.444637 10.305757 0.368170 -0.723101 -21.398236 -3.202638 3.452461 32.791021 9.001902 3.116277 -14.799408 0.000000 0.000000 0.000000 0.731068 2.090432 -4.523297 -0.976964 -2.880577 -3.994798 -1.162843 -1.086625 10.249067 -0.036575 0.264457 0.030252 -1.706717 0.044953 10.646311 -1.856704 -1.039178 -14.655829 0.000000 0.000000 0.000000 0.082500 0.788113 8.563221 -8.796838 -2.587811 6.564449 -63.035228 -6.968118 12.679441 5.880672 -41.675584 6.979313 0.000000 0.000000 0.000000 -4.282996 2.411951 7.725259 29.129483 3.007316 10.242846 55.633793 7.006696 18.184195 -5.388746 29.958166 -5.745861 0.000000 0.000000 0.000000 
-2.353061 81.192932 -29.932920 -179.876228 3.493253 -178.852820 -3.404279 0.284397 10.341764 2.282028 6.808662 -25.572194 4.477807 4.596268 33.264350 -3.973483 -13.728212 -9.925110 0.000000 0.000000 0.000000 0.149777 -2.449475 10.357004 0.339549 -0.707425 -21.562480 -3.208286 3.498754 32.946036 9.200872 3.065096 -14.704943 0.000000 0.000000 0.000000 0.741534 2.131230 -4.592083 -1.008975 -2.769461 -4.010201 -1.156259 -1.087176 10.272767 -0.033910 0.246363 0.106850 -1.713487 0.043202 10.642264 -1.850080 -1.155305 -14.569345 0.000000 0.000000 0.000000 0.048239 0.939407 8.703930 -8.811306 -2.761641 6.573943 -63.137661 -7.161159 12.604252 6.114057 -41.142368 6.694364 0.000000 0.000000 0.000000 -4.275044 2.433199 7.871212 29.205059 2.960063 10.221171 55.512216 7.060011 18.161818 -5.588756 29.832873 -5.976025 0.000000 0.000000 0.000000 
-2.363622 81.185768 -29.976332 -179.855765 3.561247 -178.842493 -3.398163 0.254880 10.343340 2.217530 6.865673 -25.623967 4.551620 4.528031 33.353658 -3.985953 -13.733402 -10.003554 0.000000 0.000000 0.000000 0.147681 -2.493578 10.403833 0.354327 -0.741690 -21.728748 -3.185163 3.559309 33.117340 9.393914 2.966089 -14.530867 0.000000 0.000000 0.000000 0.758477 2.188856 -4.750913 -1.069377 -2.679772 -4.016663 -1.153178 -1.078762 10.336333 0.001523 0.209977 0.182304 -1.697777 0.077590 10.633493 -1.777519 -1.075048 -14.537742 0.000000 0.000000 0.000000 0.094079 0.733886 8.613243 -8.851730 -2.633620 6.506156 -63.351931 -7.032986 12.554946 6.096370 -40.632386 6.655495 0.000000 0.000000 0.000000 -4.239994 2.398515 7.998926 29.207948 3.058723 10.182006 55.298912 6.959923 18.317584 -5.756725 29.845710 -6.243822 0.000000 0.000000 0.000000 
-2.361429 81.188354 -30.028118 -179.864972 3.676086 -178.826428 -3.405042 0.261169 10.342359 2.163499 6.952887 -25.646877 4.631593 4.566069 33.408204 -4.039195 -13.713926 -10.016241 0.000000 0.000000 0.000000 0.122306 -2.506582 10.419134 0.369031 -0.725454 -21.908395 -3.190649 3.644316 33.285465 9.650206 2.910270 -14.300604 0.000000 0.000000 0.000000 0.755441 2.219322 -4.936958 -1.101837 -2.607688 -3.898461 -1.207186 -1.050080 10.484525 -0.051469 0.242360 0.086098 -1.595144 0.071002 10.677530 -1.803231 -0.894232 -14.779553 0.000000 0.000000 0.000000 0.188985 0.833257 8.677216 -8.779989 -2.722886 6.371480 -63.364696 -6.908320 12.584690 5.874188 -40.229145 6.790314 0.000000 0.000000 0.000000 -4.083241 2.298537 7.906128 29.178172 2.959705 10.135209 55.036920 6.838327 18.187911 -5.635972 30.091075 -6.165097 0.000000 0.000000 0.000000 
-2.333115 81.204620 -30.069920 -179.917291 3.793329 -178.816333 -3.418906 0.220005 10.355993 2.097360 7.023758 -25.657242 4.728942 4.607126 33.391333 -4.210550 -13.707541 -9.973076 0.000000 0.000000 0.000000 0.080841 -2.572894 10.441273 0.395309 -0.790897 -22.084215 -3.175384 3.771337 33.430825 9.880764 2.809937 -14.004413 0.000000 0.000000 0.000000 0.746209 2.176817 -4.960343 -1.245691 -2.623882 -3.840845 -1.077889 -1.067229 10.384657 -0.035456 0.316643 0.103789 -1.597053 0.147155 10.705279 -1.741736 -0.835180 -14.778760 0.000000 0.000000 0.000000 0.132660 0.744669 8.583484 -8.811937 -2.591762 6.415617 -63.418457 -6.649649 12.447916 5.665900 -40.091967 6.947645 0.000000 0.000000 0.000000 -4.166473 2.271527 7.914862 29.131938 2.921182 10.080951 54.927640 6.810934 18.073591 -5.629652 30.258916 -6.241354 0.000000 0.000000 0.000000 
-2.288908 81.237206 -30.091248 -179.930897 3.900764 -178.808574 -3.398663 0.187046 10.409698 2.045266 7.108220 -25.668969 4.863865 4.643276 33.285165 -4.401947 -13.681125 -9.866096 0.000000 0.000000 0.000000 0.097153 -2.623703 10.492322 0.427849 -0.884144 -22.292079 -3.131667 3.902219 33.555306 10.125845 2.723552 -13.704330 0.000000 0.000000 0.000000 0.765681 2.105230 -5.125820 -1.371430 -2.509137 -3.743511 -1.044136 -1.141750 10.434606 -0.050807 0.322696 0.130989 -1.573439 -0.061911 10.776186 -1.611693 -0.888719 -14.796334 0.000000 0.000000 0.000000 0.153387 0.817976 8.850148 -8.821771 -2.650872 6.446693 -63.402904 -6.627321 12.298757 5.948542 -40.047093 6.629059 0.000000 0.000000 0.000000 -4.091503 2.502797 8.120236 29.176505 2.891402 10.034584 54.720525 6.815003 17.853310 -5.942898 30.738208 -6.594028 0.000000 0.000000 0.000000 
